HIERARCHY
ROOT Hips
{
	OFFSET 0.00000 0.00000 0.00000
	CHANNELS 6 Xposition Yposition Zposition Yrotation Zrotation Xrotation 
	JOINT Lumbar
	{
		OFFSET 0 0 0
		CHANNELS 3 Zrotation Xrotation Yrotation
		JOINT Neck
		{
			OFFSET 0.00 0.2701 0.00
			CHANNELS 3 Zrotation Xrotation Yrotation
			End Site
			{
				OFFSET 0.00 0.1379 0.00
			}
		}
		JOINT RightShoulder
		{
			OFFSET 0.0119 0.2289 0.1181
			CHANNELS 3 Zrotation Xrotation Yrotation
			JOINT RightElbow
			{
				OFFSET 0.00 -0.1475 0.00
				CHANNELS 2 Zrotation Yrotation
				JOINT RightWrist
				{
					OFFSET 0.00 -0.1605 0.00
					CHANNELS 2 Zrotation Xrotation
					End Site
					{
						OFFSET 0.0040 -0.1068 0.0006
					}
				}
			}
		}
		JOINT LeftShoulder
		{
			OFFSET 0.0119 0.2289 -0.1181
			CHANNELS 3 Zrotation Xrotation Yrotation
			JOINT LeftElbow
			{
				OFFSET 0.00 -0.1475 0.00
				CHANNELS 2 Zrotation Yrotation
				JOINT LeftWrist
				{
					OFFSET 0.00 -0.1605 0.00
					CHANNELS 2 Zrotation Xrotation
					End Site
					{
						OFFSET 0.0040 -0.1068 -0.0006
					}
				}
			}
		}
	}
	JOINT RightHip
	{
		OFFSET 0.0316 -0.0424 0.0458
		CHANNELS 3 Zrotation Xrotation Yrotation
		JOINT RightKnee
		{
			OFFSET 0.00 -0.2438 0.00
			CHANNELS 1 Zrotation
			JOINT RightAnkle
			{
				OFFSET 0.00 -0.2449 0.00
				CHANNELS 3 Zrotation Xrotation Yrotation
				End Site
				{
					OFFSET 0.1237 -0.0542 0.0051
				}
			}
		}
	}
	JOINT LeftHip
	{
		OFFSET 0.0316 -0.0424 -0.0458
		CHANNELS 3 Zrotation Xrotation Yrotation
		JOINT LeftKnee
		{
			OFFSET 0.00 -0.2438 0.00
			CHANNELS 1 Zrotation
			JOINT LeftAnkle
			{
				OFFSET 0.00 -0.2449 0.00
				CHANNELS 3 Zrotation Xrotation Yrotation
				End Site
				{
					OFFSET 0.1237 -0.0542 -0.0051
				}
			}
		}
	}
}
MOTION
Frames: 28
Frame Time: 0.02
-9e-05 0.00027 0.00088 11.91149 -24.10689 -5.87182 46.53469 2.65054 -9.56353 -16.06013 4.58806 -0.45889 -22.49512 -10.33664 -5.17128 31.32701 90.27411 7.5226 -0.81018 -28.50588 12.97962 2.99483 46.99048 -108.18086 19.2838 -1.95437 39.33137 -0.86424 -9.95522 -21.13478 -7.76433 -3.94862 -2.83833 37.11779 8.53755 -2.52823 -26.81708 -9.22242 5.20545 3.63827
-0.00069 0.00013 4e-05 11.85053 -24.02504 -5.90232 46.42497 2.64071 -9.5185 -16.05776 4.55424 -0.45909 -22.52897 -10.46743 -5.035 31.50453 90.19264 7.55822 -0.80243 -28.18347 13.60427 1.4312 47.30543 -105.78372 18.08616 -1.49348 39.28332 -0.90744 -9.78214 -21.13145 -7.78143 -3.96464 -2.8417 37.0435 8.58825 -1.99253 -26.82026 -9.16851 5.17747 3.60999
-0.00128 -1e-05 -0.0008 11.78987 -23.94323 -5.93283 46.31536 2.63088 -9.47363 -16.05548 4.52058 -0.45929 -22.56261 -10.5979 -4.89912 31.68148 90.11147 7.59385 -0.79472 -27.86209 14.22619 -0.12627 47.61934 -103.39696 16.89387 -1.03454 39.23526 -0.95065 -9.60965 -21.1283 -7.7985 -3.98061 -2.84505 36.96925 8.6387 -1.45839 -26.82349 -9.1147 5.14955 3.58179
-0.00187 -0.00015 -0.00164 11.7291 -23.8616 -5.96326 46.20595 2.62108 -9.42874 -16.05313 4.48688 -0.45949 -22.59637 -10.7283 -4.76326 31.85847 90.03024 7.62938 -0.78699 -27.54068 14.84877 -1.68481 47.93333 -101.00778 15.70024 -0.57517 39.18731 -0.99373 -9.43711 -21.12494 -7.81554 -3.99658 -2.84841 36.89516 8.68924 -0.92432 -26.82667 -9.06094 5.12165 3.5536
-0.00246 -0.00029 -0.00247 11.66802 -23.77998 -5.99364 46.09646 2.61128 -9.38367 -16.05067 4.453 -0.45969 -22.63032 -10.85897 -4.62698 32.03597 89.94872 7.66487 -0.77921 -27.21821 15.47445 -3.25015 48.24833 -98.60685 14.50051 -0.11358 39.1395 -1.0368 -9.26394 -21.12153 -7.83263 -4.0126 -2.85177 36.8211 8.74004 -0.38871 -26.82978 -9.0071 5.0937 3.52534
-0.00305 -0.00043 -0.00331 11.60825 -23.69776 -6.02437 45.98661 2.60138 -9.33922 -16.04877 4.41979 -0.45989 -22.66327 -10.98903 -4.49191 32.21173 89.86835 7.7008 -0.77164 -26.89912 16.08848 -4.79107 48.55989 -96.24982 13.32384 0.33978 39.09096 -1.08031 -9.09287 -21.11906 -7.84966 -4.02849 -2.85512 36.74643 8.78973 0.14232 -26.83327 -8.95335 5.06583 3.49726
-0.00364 -0.00057 -0.00415 11.54586 -23.61691 -6.05442 45.87769 2.59173 -9.29361 -16.04572 4.38528 -0.46009 -22.69834 -11.12017 -4.35463 32.39094 89.78564 7.73577 -0.76367 -26.57363 16.72503 -6.37894 48.87818 -93.80793 12.10252 0.80904 39.04374 -1.12278 -8.91781 -21.11418 -7.86676 -4.0446 -2.85848 36.67313 8.84167 0.68193 -26.83598 -8.89948 5.03783 3.46885
-0.00423 -0.00071 -0.00499 11.48596 -23.53468 -6.08501 45.76776 2.58176 -9.249 -16.04378 4.35197 -0.4603 -22.73121 -11.25031 -4.21929 32.56671 89.70528 7.77169 -0.75605 -26.25395 17.34125 -7.9244 49.18997 -91.4427 10.92153 1.26393 38.99571 -1.16641 -8.74636 -21.11248 -7.88384 -4.06053 -2.86184 36.59844 8.89142 1.2137 -26.83943 -8.84571 5.00996 3.44074
-0.00481 -0.00086 -0.00583 11.42881 -23.45115 -6.11664 45.65713 2.57174 -9.20585 -16.043 4.32011 -0.4605 -22.76236 -11.37934 -4.08665 32.73937 89.62699 7.80853 -0.74894 -25.94161 17.93102 -9.41494 49.49513 -89.17704 9.79299 1.70017 38.94499 -1.21071 -8.57955 -21.11087 -7.90072 -4.07615 -2.86516 36.52247 8.93894 1.73586 -26.84372 -8.7921 4.9822 3.413
-0.00541 -0.00099 -0.00664 11.35496 -23.37623 -6.14344 45.55213 2.56305 -9.15502 -16.03495 4.27987 -0.46066 -22.80634 -11.5151 -3.93944 32.9332 89.53438 7.83936 -0.73915 -25.58776 18.66819 -11.21222 49.84236 -86.35612 8.37214 2.24046 38.90463 -1.2489 -8.38671 -21.09734 -7.91821 -4.09332 -2.86859 36.45512 9.00067 2.31323 -26.84298 -8.73767 4.95364 3.38314
-0.00598 -0.00115 -0.00753 11.31692 -23.28249 -6.17968 45.43424 2.55091 -9.11995 -16.04264 4.25732 -0.46097 -22.82137 -11.6364 -3.82238 33.08027 89.47352 7.88334 -0.73484 -25.32105 19.09744 -12.36827 50.09831 -84.69526 7.56189 2.56335 38.84571 -1.3014 -8.24837 -21.11625 -7.93476 -4.10733 -2.87187 36.36882 9.03152 2.77411 -26.85296 -8.68492 4.92688 3.35777
-0.00646 -0.0014 -0.00865 11.37381 -23.14199 -6.24843 45.28883 2.53449 -9.13232 -16.09079 4.28376 -0.46117 -22.77081 -11.7198 -3.79402 33.11465 89.49216 7.96085 -0.74608 -25.29889 18.64813 -11.69826 50.12108 -86.34456 8.49498 2.26592 38.71006 -1.3827 -8.26465 -21.16807 -7.94611 -4.1116 -2.87409 36.23622 8.9842 2.9125 -26.89165 -8.637 4.90419 3.34454
-0.0069 -0.00168 -0.00986 11.46758 -22.98173 -6.32551 45.12899 2.51361 -9.15984 -16.15532 4.32796 -0.46161 -22.68818 -11.78825 -3.79506 33.09885 89.54699 8.0526 -0.76208 -25.36292 17.89584 -10.39644 50.04823 -89.13582 10.02906 1.75448 38.56172 -1.48073 -8.33481 -21.26482 -7.95707 -4.11279 -2.87621 36.08357 8.90475 2.93443 -26.94119 -8.59069 4.88342 3.33582
-0.00736 -0.00196 -0.01102 11.54628 -22.82728 -6.3944 44.97069 2.49147 -9.17755 -16.21407 4.36362 -0.4623 -22.61167 -11.86251 -3.77849 33.09624 89.58651 8.13881 -0.77637 -25.38436 17.30419 -9.42745 50.00879 -91.32096 11.24335 1.35658 38.43457 -1.57743 -8.37687 -21.37517 -7.96981 -4.11624 -2.87888 35.9363 8.83558 3.01157 -26.98626 -8.54352 4.86236 3.32515
-0.00781 -0.00222 -0.0122 11.61669 -22.686 -6.48164 44.83371 2.48339 -9.20718 -16.26557 4.40095 -0.46155 -22.57248 -11.9413 -3.77904 33.13548 89.60932 8.21888 -0.79135 -25.42166 16.61516 -8.26523 50.01462 -93.87396 12.65423 0.88989 38.23751 -1.64599 -8.4339 -21.33399 -7.97544 -4.11653 -2.87967 35.80455 8.78415 3.07896 -27.02953 -8.49698 4.83901 3.31414
-0.00826 -0.00251 -0.01337 11.71464 -22.51282 -6.53299 44.64869 2.44475 -9.21612 -16.33634 4.43943 -0.46378 -22.44584 -12.00659 -3.75203 33.07397 89.69053 8.31792 -0.80275 -25.4448 16.05697 -7.35447 49.89964 -95.93441 13.80013 0.51529 38.18906 -1.77923 -8.47303 -21.62911 -7.99622 -4.12208 -2.88405 35.63597 8.6887 3.13887 -27.07894 -8.44939 4.82068 3.3048
-0.00874 -0.00289 -0.01453 11.86673 -22.255 -6.48035 44.33677 2.32514 -9.15914 -16.45338 4.4735 -0.4747 -22.10332 -12.04328 -3.63134 32.76127 89.78957 8.4407 -0.83168 -25.42066 15.93725 -7.30588 49.50783 -96.32552 14.04686 0.45216 38.50159 -2.06861 -8.44455 -22.75213 -8.05512 -4.14789 -2.90097 35.36886 8.4754 3.20784 -27.14402 -8.39979 4.81753 3.29991
-0.00921 -0.00329 -0.01567 12.04788 -21.96628 -6.39206 43.97686 2.17475 -9.08153 -16.58938 4.50894 -0.48852 -21.67037 -12.06622 -3.48341 32.34642 89.967 8.58596 -0.85194 -25.37679 15.95938 -7.52972 48.99168 -96.18689 14.00948 0.48816 38.97298 -2.42564 -8.39677 -24.22598 -8.12983 -4.1782 -2.92104 35.06589 8.21996 3.27265 -27.21458 -8.3489 4.81905 3.29637
-0.00968 -0.00367 -0.01681 12.22384 -21.69231 -6.32168 43.63713 2.03664 -9.01696 -16.71911 4.54555 -0.5007 -21.26745 -12.09184 -3.35529 31.96837 90.20221 8.73842 -0.85687 -25.33353 15.9144 -7.6206 48.51042 -96.30975 14.11577 0.47582 39.40727 -2.76407 -8.36157 -25.60156 -8.19999 -4.20313 -2.93795 34.78029 7.9862 3.33915 -27.28184 -8.29771 4.81728 3.29156
-0.01019 -0.00407 -0.018 12.36626 -21.41365 -6.24348 43.30268 1.90458 -8.93836 -16.84116 4.57424 -0.51424 -20.91101 -12.13096 -3.19856 31.62819 90.06183 8.82114 -0.9415 -25.32878 15.86918 -7.7288 48.11647 -96.38423 14.18289 0.47033 39.69683 -3.05296 -8.31367 -26.73191 -8.25968 -4.24189 -2.96209 34.48875 7.73953 3.4043 -27.3532 -8.25012 4.82047 3.28964
-0.01061 -0.00445 -0.01908 12.58619 -21.13896 -6.17412 42.94739 1.75391 -8.88276 -16.98141 4.62075 -0.52563 -20.43559 -12.14018 -3.0924 31.1868 90.69995 9.05015 -0.86029 -25.23772 15.86312 -7.87293 47.51315 -96.41964 14.25467 0.47638 40.32087 -3.45943 -8.28503 -28.44141 -8.34411 -4.25312 -2.97199 34.20223 7.51156 3.47046 -27.41678 -8.19498 4.81444 3.28201
-0.01089 -0.0048 -0.01992 13.00265 -20.87261 -6.12808 42.53496 1.54892 -8.90476 -17.18468 4.70577 -0.53036 -19.66199 -12.0602 -3.15033 30.48051 93.66037 9.71313 -0.30409 -24.91595 15.92394 -8.0608 46.35827 -96.46324 14.41961 0.49549 41.87063 -4.18617 -8.32894 -31.78337 -8.49998 -4.18572 -2.94136 33.93122 7.33409 3.5612 -27.46084 -8.11673 4.78156 3.2579
-0.01108 -0.00511 -0.02066 13.498 -20.6137 -6.09385 42.10563 1.32831 -8.9485 -17.402 4.81071 -0.53283 -18.76957 -11.95316 -3.25611 29.67839 97.36792 10.51602 0.41475 -24.50757 16.0224 -8.27651 44.99999 -96.4823 14.59396 0.52292 43.7431 -5.02628 -8.38898 -35.67057 -8.67888 -4.0908 -2.89642 33.66826 7.17935 3.65002 -27.49623 -8.03137 4.73922 3.22801
-0.01127 -0.00542 -0.02143 13.96366 -20.35771 -6.06073 41.69123 1.12161 -8.97675 -17.60178 4.91297 -0.53633 -17.92732 -11.86443 -3.32879 28.92686 100.60445 11.2313 1.04709 -24.13591 16.10899 -8.47537 43.73552 -96.51605 14.75393 0.54392 45.4421 -5.80676 -8.43289 -39.23373 -8.84266 -4.00942 -2.85829 33.40598 7.02171 3.72648 -27.53332 -7.95102 4.70144 3.20103
-0.01163 -0.00582 -0.02225 14.40375 -20.07252 -5.99945 41.2436 0.88473 -9.02943 -17.85055 4.98757 -0.53992 -17.10141 -11.74741 -3.45054 28.14081 104.3891 12.04813 1.7345 -23.77259 16.17671 -8.70112 42.4534 -96.51823 14.94718 0.57906 47.26328 -6.62493 -8.51702 -43.14362 -9.02669 -3.92364 -2.81883 33.12279 6.83065 3.85782 -27.57995 -7.86329 4.66297 3.17306
-0.01162 -0.00603 -0.02294 14.91621 -19.85224 -5.99956 40.86298 0.70783 -9.03481 -17.99883 5.12554 -0.54274 -16.21025 -11.68611 -3.47921 27.40674 107.22069 12.6872 2.34366 -23.37432 16.29275 -8.87392 41.17069 -96.58571 15.07678 0.58591 48.90023 -7.3893 -8.51679 -46.44052 -9.17375 -3.84069 -2.77887 32.88721 6.71583 3.8754 -27.60475 -7.78902 4.62333 3.14557
-0.01068 -0.00572 -0.02335 15.60272 -19.79319 -6.17088 40.66131 0.69687 -8.92017 -17.87888 5.42481 -0.54394 -15.20276 -11.76033 -3.26238 26.82745 107.12739 12.79235 2.71526 -22.87685 16.51688 -8.89442 39.8572 -96.85066 15.02932 0.50889 49.98574 -7.98827 -8.31979 -48.04436 -9.21349 -3.76987 -2.73964 32.76701 6.80067 3.57193 -27.56989 -7.75568 4.58512 3.1224
-0.00938 -0.00523 -0.02364 16.36043 -19.80236 -6.4027 40.52961 0.74762 -8.75423 -17.65479 5.7888 -0.54443 -14.12674 -11.89695 -2.94688 26.30655 106.06597 12.71429 2.99945 -22.35163 16.79076 -8.85963 38.56565 -97.18162 14.91803 0.40344 50.86716 -8.5268 -8.03021 -48.98654 -9.21504 -3.70318 -2.70059 32.6972 6.96278 3.15584 -27.51362 -7.73578 4.54554 3.0996
